<?xml version="1.0" standalone="no"?>
<!DOCTYPE svg PUBLIC "-//W3C//DTD SVG 20010904//EN"
 "http://www.w3.org/TR/2001/REC-SVG-20010904/DTD/svg10.dtd">
<svg version="1.0" xmlns="http://www.w3.org/2000/svg"
 width="598.000000pt" height="598.000000pt" viewBox="0 0 598.000000 598.000000"
 preserveAspectRatio="xMidYMid meet">
<metadata>
Created by potrace 1.14, written by Peter Selinger 2001-2017
</metadata>
<g transform="translate(0.000000,598.000000) scale(0.100000,-0.100000)"
fill="#000000" stroke="none">
<path d="M2736 5953 c-4 -4 -24 -8 -44 -10 -20 -1 -68 -5 -107 -8 -38 -3 -86
-6 -105 -6 -19 0 -39 -4 -45 -8 -5 -5 -26 -7 -45 -6 -19 2 -39 0 -45 -5 -12
-10 -112 -25 -142 -22 -12 1 -24 -2 -28 -7 -3 -6 -13 -7 -21 -4 -8 3 -25 1
-37 -5 -33 -16 -98 -32 -134 -32 -17 0 -34 -4 -38 -10 -3 -5 -12 -7 -20 -3 -9
3 -21 1 -28 -5 -19 -15 -149 -55 -174 -54 -12 1 -25 -3 -28 -9 -4 -6 -18 -14
-31 -19 -47 -18 -30 -46 52 -86 42 -21 82 -47 90 -60 8 -12 24 -24 34 -27 13
-3 20 -14 20 -30 0 -14 3 -28 8 -30 25 -16 -7 -167 -35 -167 -7 0 -16 -7 -21
-17 -7 -11 -21 -16 -45 -15 -20 1 -38 -2 -41 -7 -5 -8 -81 -6 -122 3 -63 13
-184 100 -184 131 0 7 -11 20 -25 29 -14 9 -25 23 -25 32 0 8 -6 17 -14 20 -7
3 -22 21 -32 40 -18 34 -21 35 -59 29 -22 -3 -49 -15 -61 -25 -11 -11 -28 -20
-37 -20 -9 0 -19 -4 -22 -10 -3 -5 -12 -10 -20 -10 -8 0 -31 -11 -51 -25 -20
-14 -45 -25 -55 -25 -10 0 -22 -6 -26 -13 -4 -7 -33 -25 -63 -40 -30 -15 -68
-36 -85 -47 -16 -11 -46 -25 -67 -30 -48 -13 -78 -60 -71 -109 9 -68 13 -136
13 -195 0 -32 4 -64 8 -70 9 -11 8 -315 -1 -392 -9 -73 -19 -128 -30 -154 -6
-14 -12 -42 -13 -63 -1 -21 -7 -43 -12 -50 -5 -7 -10 -24 -10 -38 0 -14 -7
-41 -15 -60 -17 -38 -39 -113 -35 -126 2 -11 -30 -113 -41 -127 -17 -21 -23
-92 -9 -103 13 -11 76 -26 116 -29 30 -2 62 -32 62 -59 0 -13 6 -28 14 -34 12
-10 13 -23 7 -103 -1 -22 -76 -98 -96 -98 -20 0 -87 -36 -114 -61 -18 -17 -22
-29 -17 -58 3 -20 7 -66 9 -103 3 -38 9 -74 14 -80 6 -7 9 -24 7 -37 -3 -13 0
-29 6 -36 6 -7 8 -20 4 -29 -3 -9 -2 -22 4 -29 11 -14 22 -58 27 -107 2 -20
11 -49 19 -65 9 -17 16 -40 16 -52 0 -12 3 -23 8 -25 4 -1 20 -37 35 -78 35
-94 41 -105 76 -160 16 -25 30 -53 30 -62 1 -10 10 -22 20 -28 11 -5 23 -20
27 -32 3 -12 24 -39 45 -61 44 -46 44 -61 0 -29 -16 11 -37 21 -47 21 -11 0
-55 3 -100 7 l-80 7 -28 -34 c-16 -19 -37 -37 -48 -41 -10 -4 -22 -16 -26 -27
-11 -29 -93 -121 -109 -121 -7 0 -17 -10 -22 -22 -5 -13 -20 -36 -35 -51 -33
-35 -46 -59 -48 -91 -2 -19 -8 -26 -23 -26 -11 0 -35 -13 -53 -28 -30 -25 -33
-33 -37 -96 -4 -61 -2 -71 15 -83 11 -8 20 -18 20 -23 0 -33 189 -190 228
-190 10 0 27 -7 40 -15 12 -9 36 -17 54 -19 18 -2 40 -6 48 -10 8 -3 29 -5 45
-3 34 2 31 14 37 -173 2 -41 6 -79 10 -85 3 -5 5 -30 3 -55 -2 -24 1 -50 6
-57 6 -7 8 -21 4 -32 -3 -12 -3 -26 1 -32 4 -7 8 -26 10 -44 2 -18 14 -49 28
-70 14 -21 26 -49 26 -62 0 -13 7 -26 15 -29 8 -4 15 -10 15 -15 0 -15 68 -79
84 -79 7 0 16 -6 19 -12 2 -7 26 -19 53 -27 27 -8 54 -18 60 -23 11 -8 60 -6
147 5 21 3 49 15 61 26 12 12 30 21 39 21 9 0 20 6 24 14 4 8 19 17 33 21 20
5 49 -9 135 -61 61 -36 114 -72 118 -80 4 -8 14 -14 21 -14 21 0 104 -49 110
-65 3 -8 13 -15 23 -15 22 0 85 -37 96 -56 4 -8 14 -14 21 -14 7 0 25 -11 40
-25 15 -14 33 -25 41 -25 19 0 115 -59 115 -70 0 -10 57 -40 76 -40 7 0 26
-11 42 -25 17 -14 36 -25 44 -25 9 0 27 -11 42 -25 15 -14 35 -25 44 -25 24 0
165 -62 175 -77 4 -7 19 -13 32 -13 13 0 27 -4 30 -10 3 -5 16 -9 28 -8 22 2
122 -28 142 -42 6 -3 30 -7 53 -8 24 0 49 -5 55 -10 25 -21 330 -21 343 -1 3
5 16 6 29 3 12 -3 26 -1 29 5 4 5 13 8 21 4 9 -3 21 -1 28 4 19 16 108 43 138
43 14 0 32 7 39 15 7 8 21 15 32 15 19 0 77 22 108 41 8 5 22 12 30 15 8 3 22
10 30 15 14 9 37 20 128 61 23 11 42 24 42 29 0 5 8 9 18 9 11 0 27 9 37 20
10 11 27 22 39 26 11 4 37 20 56 35 19 16 41 29 50 29 8 1 31 14 50 30 19 17
41 30 50 30 8 0 25 11 37 23 12 13 54 40 94 61 41 20 76 41 79 45 9 14 211
131 225 131 8 0 18 6 22 13 4 7 21 21 36 30 29 19 48 13 70 -20 4 -7 16 -13
26 -13 10 0 35 -12 56 -26 21 -14 44 -23 51 -20 7 3 16 1 19 -4 7 -11 103 -11
110 1 3 4 12 6 19 3 16 -6 186 93 186 108 0 6 16 33 35 59 19 27 35 56 35 63
0 8 5 18 10 21 6 3 10 17 10 30 0 13 5 27 11 31 6 3 8 17 5 29 -3 13 -1 27 5
30 6 4 8 18 4 32 -3 14 -1 30 4 37 6 7 9 34 7 59 -2 26 -1 49 4 52 4 3 9 42
10 87 5 179 0 160 38 153 18 -3 39 -2 45 3 7 6 39 16 72 23 109 24 210 94 288
199 34 46 41 61 40 101 0 25 -6 57 -13 70 -17 32 -51 69 -64 69 -6 0 -19 17
-29 38 -10 20 -38 60 -63 87 -25 28 -49 60 -54 73 -6 12 -18 26 -27 30 -22 9
-118 111 -126 135 -4 9 -12 17 -18 17 -7 0 -20 6 -28 14 -18 16 -138 28 -146
15 -3 -5 -24 -13 -46 -19 -22 -6 -47 -14 -56 -17 -22 -9 -4 23 36 62 17 17 31
35 31 41 0 6 11 23 25 38 14 15 25 29 25 31 0 2 14 26 30 52 17 26 30 54 30
64 0 9 13 43 30 75 16 32 30 66 30 74 0 9 9 33 20 55 11 21 24 62 29 92 6 29
15 62 21 74 7 11 9 28 6 36 -4 9 -1 22 5 29 6 8 9 20 6 29 -4 8 -2 17 3 20 6
3 10 20 10 38 0 49 5 91 11 102 7 11 5 163 -2 168 -2 2 -25 11 -52 21 -26 10
-55 25 -64 34 -9 9 -25 21 -36 27 -11 5 -23 17 -27 25 -27 54 -32 72 -33 107
-2 87 47 140 135 148 82 9 94 29 59 99 -11 21 -17 44 -15 51 3 7 -4 30 -15 51
-12 21 -21 52 -21 69 0 17 -4 35 -9 41 -10 11 -41 131 -41 162 0 11 -4 23 -10
27 -5 3 -7 12 -3 20 3 9 0 21 -6 29 -6 7 -8 15 -5 18 5 5 -8 66 -24 108 -3 8
-4 23 -3 33 1 10 -2 24 -7 30 -5 7 -7 28 -6 47 2 19 3 78 2 130 -1 131 1 202
7 290 8 107 11 125 18 136 3 5 4 32 2 59 -2 38 -9 53 -26 67 -13 10 -31 25
-40 33 -9 8 -21 15 -27 15 -18 0 -126 62 -135 77 -4 7 -16 13 -26 13 -10 0
-24 7 -31 15 -7 8 -20 15 -30 15 -9 0 -34 11 -54 25 -20 14 -43 25 -50 25 -7
0 -32 13 -57 29 -64 42 -101 47 -138 20 -17 -13 -31 -30 -31 -40 0 -9 -7 -19
-15 -23 -8 -3 -15 -12 -15 -20 0 -7 -11 -21 -25 -30 -14 -9 -25 -23 -25 -30 0
-18 -76 -84 -118 -102 -18 -8 -49 -17 -70 -19 -20 -3 -49 -7 -65 -9 -15 -2
-55 3 -89 12 -76 21 -98 52 -102 148 -3 66 19 124 45 124 7 0 22 11 35 25 13
14 32 25 43 25 11 0 23 5 26 10 4 6 24 19 46 30 42 22 53 56 22 67 -10 3 -26
13 -35 21 -10 8 -24 12 -31 9 -8 -3 -23 0 -33 7 -11 7 -48 18 -84 25 -36 7
-79 19 -97 27 -17 9 -37 14 -45 13 -17 -3 -70 11 -85 23 -7 6 -20 7 -29 4 -9
-4 -23 -1 -30 5 -8 6 -20 9 -29 6 -8 -4 -17 -2 -20 3 -3 6 -18 9 -33 8 -40 -3
-131 12 -138 23 -3 5 -21 7 -39 3 -19 -3 -40 -2 -47 3 -7 4 -31 9 -53 11 -22
1 -69 5 -105 7 -155 13 -216 16 -400 19 -107 2 -205 -1 -217 -5 -13 -5 -25 -4
-28 1 -7 12 -29 13 -39 3z m-1296 -4135 c77 -68 207 -166 345 -258 326 -219
888 -532 1124 -625 l93 -37 62 22 c33 13 103 42 155 66 52 24 99 44 104 44 6
0 18 6 26 14 9 7 45 28 81 46 36 17 72 35 80 40 271 155 594 349 705 424 83
56 275 196 301 221 7 5 34 28 60 50 26 22 97 88 158 147 60 59 111 106 112
105 2 -2 -8 -38 -21 -81 -13 -43 -26 -90 -28 -105 -14 -87 -43 -193 -64 -236
-45 -92 -163 -219 -163 -176 0 17 -85 51 -126 51 -83 0 -241 -61 -372 -144
-23 -14 -44 -26 -46 -26 -2 0 -71 -41 -153 -91 -81 -51 -160 -99 -175 -108
-15 -9 -91 -55 -170 -102 -165 -99 -251 -138 -338 -155 -178 -34 -185 -34
-285 -18 -150 23 -238 61 -462 195 -92 56 -210 127 -261 158 -50 31 -100 61
-110 66 -9 6 -57 34 -105 63 -276 165 -434 202 -514 122 l-28 -27 -52 55 c-29
30 -55 64 -59 74 -3 10 -9 18 -14 18 -4 0 -17 24 -28 53 -18 47 -26 72 -38
132 -2 11 -6 29 -9 40 -2 11 -6 31 -9 44 -10 44 -37 136 -51 174 -8 20 -15 39
-15 41 0 2 51 -46 113 -108 62 -61 142 -137 177 -168z m-857 155 c10 -13 25
-30 33 -37 25 -26 63 -111 78 -177 9 -35 13 -65 11 -67 -2 -2 -39 4 -82 14
l-78 19 -1 41 c0 25 -12 64 -29 95 -32 63 -41 132 -18 155 14 13 18 13 42 -2
14 -10 34 -28 44 -41z m4955 -1 c2 -28 -7 -61 -29 -108 -19 -39 -32 -82 -31
-101 1 -28 -3 -35 -26 -44 -15 -6 -38 -12 -52 -14 -14 -2 -40 -6 -57 -9 -32
-6 -32 -6 -26 26 3 18 10 37 14 43 5 5 9 19 9 32 0 30 42 113 74 148 14 15 26
30 28 34 2 3 16 16 32 28 38 30 61 18 64 -35z m-4289 -1041 c27 -15 22 -21
-44 -48 -50 -21 -175 -30 -175 -13 0 14 78 71 108 79 30 8 75 1 111 -18z
m3667 -10 c15 -12 34 -31 42 -43 15 -20 14 -20 -51 -15 -47 4 -82 14 -117 34
l-50 28 27 13 c40 18 115 9 149 -17z"/>
</g>
</svg>
